<mxfile host="app.diagrams.net" modified="2024-10-22T13:34:03.811Z" agent="Mozilla/5.0 (Windows NT 10.0; Win64; x64) AppleWebKit/537.36 (KHTML, like Gecko) Chrome/130.0.0.0 Safari/537.36" version="24.0.2" etag="CxqEgKwB_EL7nz-EIFb4" type="github">
  <diagram name="Page-1" id="Ngv0-qLj1KZr1NmHaaN_">
    <mxGraphModel>
      <root>
        <mxCell id="0" />
        <mxCell id="1" parent="0" />
      </root>
    </mxGraphModel>
  </diagram>
</mxfile>
